<svg width="25" height="20" viewBox="0 0 25 20" fill="none" xmlns="http://www.w3.org/2000/svg">
<path d="M22.3086 5.74543C22.3086 12.2472 17.353 19.7574 8.29658 19.7574C5.52107 19.7574 2.92804 18.9411 0.757568 17.5582C1.14172 17.6062 1.53548 17.6254 1.92924 17.6254C4.23416 17.6254 6.35661 16.8379 8.04688 15.5125C5.89562 15.4741 4.07089 14.0528 3.44664 12.0936C3.74436 12.1512 4.05169 12.18 4.36861 12.18C4.81999 12.18 5.25217 12.1224 5.66513 12.0071C3.41783 11.5558 1.71795 9.55816 1.71795 7.17641V7.10918C2.38062 7.47412 3.13932 7.69501 3.94604 7.72382C2.63032 6.84027 1.75637 5.33247 1.75637 3.62298C1.75637 2.72022 1.99646 1.87508 2.41903 1.14519C4.8488 4.12238 8.47906 6.09117 12.5703 6.29285C12.4935 5.92791 12.4454 5.55336 12.4454 5.1692C12.4454 2.45131 14.6543 0.242432 17.3722 0.242432C18.784 0.242432 20.0613 0.83787 20.9641 1.79825C22.0877 1.57737 23.1441 1.174 24.0949 0.607377C23.7204 1.75984 22.9424 2.72983 21.9244 3.33487C22.9232 3.21002 23.874 2.95071 24.7576 2.55696C24.0949 3.54615 23.2594 4.4201 22.299 5.11158C22.3086 5.32286 22.3086 5.53415 22.3086 5.74543Z" fill="#000"/>
</svg>
