<svg xmlns="http://www.w3.org/2000/svg" width="20" height="20" viewBox="0 0 20 20"><title>settings</title><path d="M18.38,6.79l-1.69-.56.8-1.6a.91.91,0,0,0-.17-1L15.4,1.68a.91.91,0,0,0-1-.17l-1.6.8L12.2.61A.91.91,0,0,0,11.35,0H8.65a.91.91,0,0,0-.86.62L7.23,2.31l-1.6-.8a.91.91,0,0,0-1,.17L2.68,3.6a.91.91,0,0,0-.17,1l.8,1.6-1.7.56A.91.91,0,0,0,1,7.65v2.7a.91.91,0,0,0,.62.86l1.69.56-.8,1.6a.91.91,0,0,0,.17,1L4.6,16.32a.91.91,0,0,0,1,.17l1.6-.8.56,1.7a.91.91,0,0,0,.85.61h2.71a.91.91,0,0,0,.86-.62l.56-1.69,1.6.8a.92.92,0,0,0,1-.17l1.92-1.92a.9.9,0,0,0,.17-1l-.8-1.61,1.7-.56a.91.91,0,0,0,.61-.85V7.65A.91.91,0,0,0,18.38,6.79ZM17.2,9.7l-1.08.36A1.81,1.81,0,0,0,15,12.33a1.59,1.59,0,0,0,.12.27l.51,1-1,1-1-.54a1.79,1.79,0,0,0-2.41.8,2.44,2.44,0,0,0-.1.24l-.36,1.08H9.3l-.36-1.08A1.81,1.81,0,0,0,6.67,14a1.59,1.59,0,0,0-.27.12l-1,.51-1-1,.54-1a1.81,1.81,0,0,0-.77-2.43l-.27-.11L2.8,9.7V8.3l1.08-.36A1.81,1.81,0,0,0,5,5.67a1.59,1.59,0,0,0-.12-.27l-.51-1,1-1,1,.51a1.81,1.81,0,0,0,2.43-.77c0-.09.08-.18.11-.27L9.3,1.8h1.4l.36,1.08A1.81,1.81,0,0,0,13.33,4a1.59,1.59,0,0,0,.27-.12l1-.51,1,1-.54,1a1.79,1.79,0,0,0,.8,2.41l.24.1,1.08.36Zm-7-4.49a3.6,3.6,0,1,0,3.6,3.6A3.6,3.6,0,0,0,10.22,5.21Zm0,5.4A1.8,1.8,0,1,1,12,8.81,1.81,1.81,0,0,1,10.22,10.61Z" fill="#fff"/></svg>